<svg width="429" height="429" viewBox="0 0 429 429" fill="none" xmlns="http://www.w3.org/2000/svg">
<rect width="429" height="429" rx="55" fill="#212121"/>
<path d="M192.091 86.489C217.966 86.489 230.903 100.261 230.903 127.805V247.684C230.903 275.228 217.966 289 192.091 289H111.65V86.489H192.091ZM187.083 252.692V122.484C187.083 120.815 186.457 119.354 185.205 118.102C184.162 116.85 182.805 116.224 181.136 116.224H155.47V258.952H181.136C182.805 258.952 184.162 258.326 185.205 257.074C186.457 255.822 187.083 254.361 187.083 252.692Z" fill="white"/>
<path d="M315.291 196.377H275.524V181.128C275.524 179.533 274.926 178.138 273.73 176.942C272.733 175.746 271.438 175.148 269.843 175.148H253.398C251.803 175.148 250.408 175.746 249.212 176.942C248.215 178.138 247.717 179.533 247.717 181.128V215.513C247.717 217.108 248.215 218.503 249.212 219.699C250.408 220.895 251.803 221.493 253.398 221.493H280.308C305.025 221.892 317.384 235.048 317.384 260.961V302.522C317.384 328.834 305.025 341.99 280.308 341.99H245.026C220.309 341.99 207.95 328.834 207.95 302.522V282.489H247.717V304.017C247.717 305.612 248.215 307.007 249.212 308.203C250.408 309.399 251.803 309.997 253.398 309.997H271.936C273.531 309.997 274.826 309.399 275.823 308.203C277.019 307.007 277.617 305.612 277.617 304.017V266.044C277.617 264.449 277.019 263.054 275.823 261.858C274.826 260.662 273.531 260.064 271.936 260.064H245.026C220.309 260.064 207.95 246.908 207.95 220.596V182.025C207.95 155.713 220.309 142.557 245.026 142.557H278.215C302.932 142.557 315.291 155.713 315.291 182.025V196.377Z" fill="#1AC073"/>
</svg>
