<svg width="429" height="429" viewBox="0 0 429 429" fill="none" xmlns="http://www.w3.org/2000/svg">
<rect width="429" height="429" rx="55" fill="#212121"/>
<path d="M79.472 123.888C87.408 123.888 91.376 128.112 91.376 136.56V173.328C91.376 181.776 87.408 186 79.472 186H54.8V123.888H79.472ZM77.936 174.864V134.928C77.936 134.416 77.744 133.968 77.36 133.584C77.04 133.2 76.624 133.008 76.112 133.008H68.24V176.784H76.112C76.624 176.784 77.04 176.592 77.36 176.208C77.744 175.824 77.936 175.376 77.936 174.864ZM112.626 186H99.7617V123.888H112.626V140.496C114.546 138.96 117.17 138.192 120.498 138.192H122.514C130.45 138.192 134.418 142.416 134.418 150.864V186H121.554V149.328C121.554 148.816 121.362 148.368 120.978 147.984C120.658 147.6 120.242 147.408 119.73 147.408H114.45C113.362 147.408 112.754 147.984 112.626 149.136V186ZM155.072 133.296C153.728 134.64 152.096 135.312 150.176 135.312C148.256 135.312 146.592 134.64 145.184 133.296C143.776 131.888 143.072 130.224 143.072 128.304C143.072 126.32 143.776 124.656 145.184 123.312C146.592 121.904 148.256 121.2 150.176 121.2C152.096 121.2 153.728 121.904 155.072 123.312C156.48 124.656 157.184 126.32 157.184 128.304C157.184 130.288 156.48 131.952 155.072 133.296ZM143.744 186V139.152H156.608V186H143.744ZM186.089 139.152H198.569L188.297 186H171.305L161.033 139.152H173.513L179.849 175.536L186.089 139.152ZM226.801 139.152H237.649V186H226.801V182.544C224.817 185.488 221.521 186.96 216.913 186.96H214.897C206.961 186.96 202.993 182.736 202.993 174.288V150.864C202.993 142.416 206.961 138.192 214.897 138.192H216.913C221.521 138.192 224.817 139.664 226.801 142.608V139.152ZM224.785 175.824V149.328C224.785 148.816 224.593 148.368 224.209 147.984C223.889 147.6 223.473 147.408 222.961 147.408H217.681C217.169 147.408 216.721 147.6 216.337 147.984C216.017 148.368 215.857 148.816 215.857 149.328V175.824C215.857 176.336 216.017 176.784 216.337 177.168C216.721 177.552 217.169 177.744 217.681 177.744H222.961C223.473 177.744 223.889 177.552 224.209 177.168C224.593 176.784 224.785 176.336 224.785 175.824ZM279.904 139.152V189.552C279.904 198 275.936 202.224 268 202.224H258.4C250.464 202.224 246.496 198 246.496 189.552V188.016H258.112V191.088C258.112 191.6 258.272 192.048 258.592 192.432C258.976 192.816 259.424 193.008 259.936 193.008H265.216C265.728 193.008 266.144 192.816 266.464 192.432C266.848 192.048 267.04 191.6 267.04 191.088V181.488C265.056 183.024 262.432 183.792 259.168 183.792H257.152C249.216 183.792 245.248 179.568 245.248 171.12V150.864C245.248 142.416 249.216 138.192 257.152 138.192H259.168C263.776 138.192 267.072 139.664 269.056 142.608V139.152H279.904ZM267.04 172.656V149.328C267.04 148.816 266.848 148.368 266.464 147.984C266.144 147.6 265.728 147.408 265.216 147.408H259.936C259.424 147.408 258.976 147.6 258.592 147.984C258.272 148.368 258.112 148.816 258.112 149.328V172.656C258.112 173.168 258.272 173.616 258.592 174C258.976 174.384 259.424 174.576 259.936 174.576H265.216C265.728 174.576 266.144 174.384 266.464 174C266.848 173.616 267.04 173.168 267.04 172.656ZM311.31 139.152H322.158V186H311.31V182.544C309.326 185.488 306.03 186.96 301.422 186.96H299.406C291.47 186.96 287.502 182.736 287.502 174.288V150.864C287.502 142.416 291.47 138.192 299.406 138.192H301.422C306.03 138.192 309.326 139.664 311.31 142.608V139.152ZM309.294 175.824V149.328C309.294 148.816 309.102 148.368 308.718 147.984C308.398 147.6 307.982 147.408 307.47 147.408H302.19C301.678 147.408 301.23 147.6 300.846 147.984C300.526 148.368 300.366 148.816 300.366 149.328V175.824C300.366 176.336 300.526 176.784 300.846 177.168C301.23 177.552 301.678 177.744 302.19 177.744H307.47C307.982 177.744 308.398 177.552 308.718 177.168C309.102 176.784 309.294 176.336 309.294 175.824ZM349.724 138.192H352.22V150.672H345.884C343.708 150.672 342.62 151.792 342.62 154.032V186H329.756V139.152H341.468V143.664C343.324 140.016 346.076 138.192 349.724 138.192Z" fill="white"/>
<path d="M202.264 194.427H189.496V189.531C189.496 189.019 189.304 188.571 188.92 188.187C188.6 187.803 188.184 187.611 187.672 187.611H182.392C181.88 187.611 181.432 187.803 181.048 188.187C180.728 188.571 180.568 189.019 180.568 189.531V200.571C180.568 201.083 180.728 201.531 181.048 201.915C181.432 202.299 181.88 202.491 182.392 202.491H191.032C198.968 202.619 202.936 206.843 202.936 215.163V228.507C202.936 236.955 198.968 241.179 191.032 241.179H179.704C171.768 241.179 167.8 236.955 167.8 228.507V222.075H180.568V228.987C180.568 229.499 180.728 229.947 181.048 230.331C181.432 230.715 181.88 230.907 182.392 230.907H188.344C188.856 230.907 189.272 230.715 189.592 230.331C189.976 229.947 190.168 229.499 190.168 228.987V216.795C190.168 216.283 189.976 215.835 189.592 215.451C189.272 215.067 188.856 214.875 188.344 214.875H179.704C171.768 214.875 167.8 210.651 167.8 202.203V189.819C167.8 181.371 171.768 177.147 179.704 177.147H190.36C198.296 177.147 202.264 181.371 202.264 189.819V194.427ZM227.225 232.827H231.065V241.179H222.041C214.105 241.179 210.137 236.955 210.137 228.507V183.195H223.001V193.371H231.065V202.683H223.001V228.219C223.001 230.011 223.353 231.227 224.057 231.867C224.761 232.507 225.817 232.827 227.225 232.827ZM260.449 193.371H271.297V240.219H260.449V236.763C258.465 239.707 255.169 241.179 250.561 241.179H248.545C240.609 241.179 236.641 236.955 236.641 228.507V205.083C236.641 196.635 240.609 192.411 248.545 192.411H250.561C255.169 192.411 258.465 193.883 260.449 196.827V193.371ZM258.433 230.043V203.547C258.433 203.035 258.241 202.587 257.857 202.203C257.537 201.819 257.121 201.627 256.609 201.627H251.329C250.817 201.627 250.369 201.819 249.985 202.203C249.665 202.587 249.505 203.035 249.505 203.547V230.043C249.505 230.555 249.665 231.003 249.985 231.387C250.369 231.771 250.817 231.963 251.329 231.963H256.609C257.121 231.963 257.537 231.771 257.857 231.387C258.241 231.003 258.433 230.555 258.433 230.043ZM291.759 240.219H278.895V193.371H290.607V195.771C292.591 193.531 295.599 192.411 299.631 192.411H301.647C309.583 192.411 313.551 196.635 313.551 205.083V240.219H300.687V203.547C300.687 203.035 300.495 202.587 300.111 202.203C299.791 201.819 299.375 201.627 298.863 201.627H293.583C293.071 201.627 292.623 201.819 292.239 202.203C291.919 202.587 291.759 203.035 291.759 203.547V240.219ZM334.013 240.219H321.149V178.107H334.013V240.219ZM363.258 193.371H376.122V243.771C376.122 252.219 372.154 256.443 364.218 256.443H354.618C346.682 256.443 342.714 252.219 342.714 243.771V242.235H355.194V245.307C355.194 245.819 355.354 246.267 355.674 246.651C356.058 247.035 356.506 247.227 357.018 247.227H361.434C361.946 247.227 362.362 247.035 362.682 246.651C363.066 246.267 363.258 245.819 363.258 245.307V235.803C361.338 237.339 358.714 238.107 355.386 238.107H353.37C345.434 238.107 341.466 233.883 341.466 225.435V193.371H354.33V226.971C354.33 227.483 354.49 227.931 354.81 228.315C355.194 228.699 355.642 228.891 356.154 228.891H361.434C361.946 228.891 362.362 228.699 362.682 228.315C363.066 227.931 363.258 227.483 363.258 226.971V193.371Z" fill="#1AC073"/>
<path d="M78.06 293.815C77.94 293.815 77.78 293.755 77.58 293.635C77.3 293.355 77.06 293.095 76.86 292.855C76.7 292.615 76.54 292.395 76.38 292.195C76.1 291.755 75.74 291.215 75.3 290.575C74.9 289.935 74.42 289.175 73.86 288.295C73.66 288.055 73.4 287.735 73.08 287.335C72.76 286.895 72.4 286.395 72 285.835L70.14 281.755C70.02 281.475 69.84 281.155 69.6 280.795C69.36 280.395 69.08 279.935 68.76 279.415C68.68 279.215 68.5 278.955 68.22 278.635C67.98 278.275 67.66 277.835 67.26 277.315L67.2 277.435C67.2 277.195 67.24 276.915 67.32 276.595C67.44 275.875 67.96 275.195 68.88 274.555C69.8 273.915 70.74 273.335 71.7 272.815C72.06 272.495 72.54 272.095 73.14 271.615C73.78 271.095 74.54 270.495 75.42 269.815C75.98 269.455 76.6 268.995 77.28 268.435C77.96 267.875 78.72 267.215 79.56 266.455L80.16 265.735C80.2 265.615 80.22 265.455 80.22 265.255C80.22 264.655 80.08 263.955 79.8 263.155L77.94 260.815C77.78 260.575 77.5 260.295 77.1 259.975C76.7 259.655 76.22 259.295 75.66 258.895C73.82 257.415 71.82 256.615 69.66 256.495C69.06 256.415 68.34 256.415 67.5 256.495C66.98 256.535 66.52 256.575 66.12 256.615C65.76 256.615 65.44 256.615 65.16 256.615C64.68 256.615 64.44 256.215 64.44 255.415C64.44 254.535 64.76 253.995 65.4 253.795C66.04 253.555 66.8 253.435 67.68 253.435C68.04 253.435 68.4 253.455 68.76 253.495C69.12 253.495 69.48 253.495 69.84 253.495H69.9C71.3 253.495 72.56 253.755 73.68 254.275C74.84 254.795 75.88 255.395 76.8 256.075C77 256.235 77.3 256.515 77.7 256.915C78.1 257.275 78.62 257.775 79.26 258.415L80.64 259.555C81.32 260.115 81.74 260.915 81.9 261.955C81.98 262.395 82.04 262.835 82.08 263.275C82.16 263.715 82.2 264.135 82.2 264.535C82.2 266.455 81.7 267.915 80.7 268.915C80.3 269.315 79.74 269.815 79.02 270.415C78.3 270.975 77.42 271.655 76.38 272.455C75.98 272.775 75.44 273.195 74.76 273.715C74.08 274.195 73.28 274.755 72.36 275.395L70.02 276.955C70.14 276.995 70.22 277.075 70.26 277.195L71.64 279.655C71.84 280.095 72.1 280.655 72.42 281.335C72.74 282.015 73.12 282.795 73.56 283.675C73.88 284.155 74.48 284.935 75.36 286.015C76.28 287.775 77.08 289.055 77.76 289.855C77.92 290.055 78.08 290.275 78.24 290.515C78.44 290.755 78.68 291.015 78.96 291.295C79.16 291.495 79.26 291.775 79.26 292.135C79.26 292.535 79.14 292.915 78.9 293.275C78.66 293.635 78.38 293.815 78.06 293.815ZM61.5 292.495C60.86 292.495 60.54 291.975 60.54 290.935C60.54 290.455 60.72 290.095 61.08 289.855L62.4 289.015L62.46 288.835C63.1 288.195 63.6 286.895 63.96 284.935C64.12 283.975 64.28 283.035 64.44 282.115C64.6 281.195 64.76 280.175 64.92 279.055C65.08 277.895 65.24 276.475 65.4 274.795C65.48 274.395 65.54 273.875 65.58 273.235C65.66 272.555 65.72 271.875 65.76 271.195C65.84 270.475 65.9 269.895 65.94 269.455C65.98 269.135 66 268.835 66 268.555C66 268.275 66 267.955 66 267.595C66 267.195 66 266.775 66 266.335C66 265.895 66.02 265.395 66.06 264.835C66.06 264.195 66.16 263.435 66.36 262.555L66.72 260.695C66.92 259.615 67.3 259.075 67.86 259.075C68.46 259.075 68.7 259.635 68.58 260.755L68.04 264.955C68.04 265.995 67.98 267.535 67.86 269.575C67.82 270.015 67.76 270.695 67.68 271.615C67.64 272.495 67.54 273.595 67.38 274.915C67.34 275.555 67.16 276.575 66.84 277.975C66.6 279.095 66.48 280.075 66.48 280.915V281.095C66.48 281.735 66.36 282.595 66.12 283.675C65.88 284.755 65.56 286.055 65.16 287.575L64.56 289.315C64.44 289.675 64.28 290.015 64.08 290.335C63.88 290.615 63.68 290.875 63.48 291.115L61.86 292.375C61.7 292.455 61.58 292.495 61.5 292.495ZM85.7644 292.915C84.0044 292.915 82.5644 292.375 81.4444 291.295C80.3644 290.215 79.8244 288.755 79.8244 286.915C79.8244 286.515 79.8444 286.115 79.8844 285.715C79.9644 285.315 80.0444 284.915 80.1244 284.515C80.5644 282.795 81.7844 280.955 83.7844 278.995C86.0244 276.875 87.9644 275.815 89.6044 275.815C90.9644 275.815 91.6044 276.575 91.5244 278.095C91.4844 280.055 90.4044 281.975 88.2844 283.855C87.3644 284.615 86.4044 285.315 85.4044 285.955C84.4444 286.595 83.4244 286.915 82.3444 286.915H82.2844C82.4044 289.515 83.7444 290.815 86.3044 290.815C87.1444 290.815 88.0844 290.615 89.1244 290.215C89.2044 290.175 89.3244 290.155 89.4844 290.155C90.0044 290.155 90.2644 290.415 90.2644 290.935C90.2644 291.295 90.0844 291.575 89.7244 291.775C88.6044 292.535 87.2844 292.915 85.7644 292.915ZM83.9044 284.095C85.1444 283.815 86.2044 283.295 87.0844 282.535C88.6444 281.215 89.4244 279.955 89.4244 278.755V278.635C89.4244 278.355 89.3244 278.135 89.1244 277.975C88.9244 277.815 88.7844 277.775 88.7044 277.855C87.4644 277.855 86.1444 278.755 84.7444 280.555C84.5444 280.835 84.3044 281.215 84.0244 281.695C83.7444 282.135 83.4444 282.675 83.1244 283.315C83.0844 283.395 83.0644 283.475 83.0644 283.555C83.0644 283.915 83.3444 284.095 83.9044 284.095ZM108.585 292.375C108.385 292.375 108.205 292.295 108.045 292.135C106.965 291.015 106.405 289.375 106.365 287.215C106.365 287.055 106.385 286.875 106.425 286.675C106.465 286.435 106.485 286.175 106.485 285.895L106.545 284.635V284.455C106.545 283.735 106.285 283.475 105.765 283.675C104.965 284.235 103.885 285.055 102.525 286.135C101.205 287.175 99.6055 288.455 97.7255 289.975C96.9255 290.735 95.9055 291.115 94.6655 291.115C93.9455 291.115 93.3255 290.735 92.8055 289.975C92.3255 289.175 92.1455 288.415 92.2655 287.695C92.3855 286.655 92.8055 285.535 93.5255 284.335C94.2455 283.095 95.1255 281.875 96.1655 280.675C97.2455 279.435 98.3855 278.355 99.5855 277.435C100.825 276.475 102.005 275.795 103.125 275.395C103.565 275.235 103.985 275.115 104.385 275.035C104.785 274.955 105.185 274.915 105.585 274.915C107.305 274.915 108.165 275.515 108.165 276.715C108.165 277.115 108.005 277.315 107.685 277.315C107.565 277.315 107.445 277.315 107.325 277.315C107.205 277.275 107.085 277.215 106.965 277.135C106.245 276.535 105.585 276.235 104.985 276.235C104.385 276.235 103.505 276.595 102.345 277.315C101.425 277.875 100.525 278.575 99.6455 279.415C98.7655 280.255 97.9255 281.195 97.1255 282.235C96.3655 283.235 95.7655 284.135 95.3255 284.935C94.8855 285.695 94.6255 286.375 94.5455 286.975C94.5055 287.135 94.4855 287.335 94.4855 287.575C94.4855 288.215 94.7455 288.535 95.2655 288.535C95.9055 288.535 97.1055 287.955 98.8655 286.795C103.065 283.995 105.985 281.515 107.625 279.355C108.025 278.835 108.385 278.135 108.705 277.255C108.905 276.695 109.325 276.415 109.965 276.415C110.685 276.415 111.045 276.815 111.045 277.615C111.045 278.255 110.745 279.055 110.145 280.015C109.185 282.935 108.705 284.955 108.705 286.075C108.785 287.795 109.205 289.175 109.965 290.215C110.085 290.335 110.145 290.495 110.145 290.695C110.145 291.055 109.965 291.415 109.605 291.775C109.245 292.175 108.905 292.375 108.585 292.375ZM118.555 292.195C117.035 292.195 115.815 291.475 114.895 290.035C114.135 288.875 113.755 287.615 113.755 286.255C113.755 284.775 113.955 283.395 114.355 282.115C114.795 280.795 115.395 279.575 116.155 278.455C117.835 276.055 119.935 274.855 122.455 274.855C123.335 274.855 124.035 275.195 124.555 275.875C125.115 276.515 125.335 277.195 125.215 277.915C125.015 279.075 124.595 279.655 123.955 279.655C123.675 279.655 123.535 279.515 123.535 279.235C123.535 279.075 123.595 278.915 123.715 278.755H123.655C123.815 278.555 123.895 278.295 123.895 277.975C123.895 277.535 123.695 277.155 123.295 276.835C122.935 276.475 122.535 276.295 122.095 276.295C120.335 276.295 118.815 277.435 117.535 279.715C116.415 281.675 115.855 283.735 115.855 285.895C115.855 286.975 116.135 287.915 116.695 288.715C117.295 289.635 118.115 290.095 119.155 290.095C120.915 290.095 122.575 289.475 124.135 288.235C124.295 288.075 124.495 287.995 124.735 287.995C125.135 287.995 125.335 288.235 125.335 288.715C125.335 289.035 125.215 289.315 124.975 289.555C123.455 291.315 121.315 292.195 118.555 292.195ZM129.908 295.255C128.908 295.255 128.408 294.655 128.408 293.455C128.408 287.495 128.828 281.155 129.668 274.435C129.268 274.355 128.848 274.295 128.408 274.255C128.008 274.175 127.608 274.095 127.208 274.015C126.088 273.855 125.528 273.535 125.528 273.055C125.528 272.575 125.768 272.275 126.248 272.155H126.188C125.828 272.155 125.888 272.135 126.368 272.095C126.848 272.015 127.468 271.935 128.228 271.855C128.988 271.775 129.588 271.735 130.028 271.735C130.268 270.335 130.748 268.675 131.468 266.755C131.868 265.595 132.188 264.595 132.428 263.755C132.708 262.875 132.928 262.175 133.088 261.655C133.288 260.855 133.808 260.455 134.648 260.455C135.008 260.455 135.148 260.635 135.068 260.995C134.748 262.115 134.348 263.575 133.868 265.375C133.388 267.135 132.868 269.235 132.308 271.675C132.668 271.675 133.108 271.675 133.628 271.675C134.188 271.675 134.828 271.695 135.548 271.735C136.268 271.775 136.888 271.815 137.408 271.855C137.968 271.855 138.408 271.855 138.728 271.855C139.088 271.855 139.268 271.995 139.268 272.275C139.268 272.515 139.108 272.775 138.788 273.055C138.508 273.335 138.188 273.475 137.828 273.475C137.348 273.475 136.628 273.555 135.668 273.715C134.708 273.835 133.488 274.035 132.008 274.315C131.408 279.235 131.108 285.915 131.108 294.355C131.108 294.955 130.708 295.255 129.908 295.255ZM148.892 261.535C148.692 261.535 148.512 261.415 148.352 261.175C148.192 260.895 148.112 260.575 148.112 260.215C148.112 259.535 148.392 258.915 148.952 258.355V258.415L151.472 256.435C152.312 255.875 153.272 255.435 154.352 255.115C154.512 255.075 154.812 255.055 155.252 255.055C155.692 255.015 156.272 254.995 156.992 254.995C157.232 254.995 157.712 254.835 158.432 254.515C159.032 254.235 159.572 254.095 160.052 254.095C160.692 254.095 161.312 254.275 161.912 254.635L163.292 255.415C163.692 255.655 163.892 256.075 163.892 256.675C163.892 257.075 163.792 257.475 163.592 257.875C163.432 258.235 163.192 258.415 162.872 258.415C162.632 258.415 162.072 258.095 161.192 257.455C160.752 257.135 160.332 256.975 159.932 256.975C159.572 256.975 159.212 257.055 158.852 257.215C158.372 257.375 157.892 257.495 157.412 257.575L157.052 257.815V257.755C156.292 257.755 155.372 257.935 154.292 258.295C154.132 258.335 153.852 258.435 153.452 258.595C153.052 258.715 152.552 258.875 151.952 259.075C151.832 259.115 151.612 259.275 151.292 259.555C150.972 259.795 150.552 260.135 150.032 260.575L149.312 261.355C149.192 261.475 149.052 261.535 148.892 261.535ZM149.252 293.695C148.052 294.975 146.872 295.775 145.712 296.095C145.872 296.135 145.812 296.155 145.532 296.155H145.412C145.452 296.155 145.552 296.135 145.712 296.095C145.552 296.015 145.192 295.915 144.632 295.795C144.072 295.675 143.472 295.475 142.832 295.195C142.192 294.955 141.692 294.655 141.332 294.295L141.152 294.115C140.232 293.195 139.532 292.035 139.052 290.635C138.892 290.115 138.732 289.615 138.572 289.135C138.452 288.615 138.392 288.095 138.392 287.575C138.392 287.095 138.512 286.695 138.752 286.375C138.992 286.015 139.252 285.835 139.532 285.835C139.892 285.835 140.132 286.115 140.252 286.675C140.532 287.595 140.812 288.515 141.092 289.435C141.412 290.315 141.912 291.095 142.592 291.775C143.552 292.735 144.412 293.215 145.172 293.215C145.972 293.215 146.932 292.595 148.052 291.355C148.372 291.035 148.672 290.635 148.952 290.155C149.232 289.675 149.452 289.155 149.612 288.595L150.812 284.635C151.052 283.875 151.332 282.695 151.652 281.095C152.012 279.495 152.412 277.475 152.852 275.035C153.132 273.515 153.392 271.855 153.632 270.055C153.912 268.255 154.152 266.335 154.352 264.295C154.392 264.015 154.452 263.515 154.532 262.795C154.612 262.035 154.692 261.075 154.772 259.915C154.852 258.875 155.212 258.355 155.852 258.355C156.612 258.355 156.932 258.895 156.812 259.975L156.392 264.475C156.232 266.435 156.012 268.335 155.732 270.175C155.452 272.015 155.152 273.795 154.832 275.515L153.932 280.555C153.772 281.435 153.572 282.295 153.332 283.135C153.092 283.975 152.812 284.815 152.492 285.655L151.232 289.975C150.672 291.575 150.012 292.815 149.252 293.695ZM164.367 294.235C163.767 294.235 163.467 293.715 163.467 292.675C163.467 291.995 163.647 291.575 164.007 291.415C164.407 291.135 164.947 290.815 165.627 290.455C166.347 290.095 167.207 289.695 168.207 289.255C168.887 289.055 169.847 288.755 171.087 288.355C173.007 287.555 174.687 286.535 176.127 285.295C176.727 284.855 177.547 284.035 178.587 282.835C178.907 282.315 179.067 281.715 179.067 281.035C179.067 280.115 178.867 279.395 178.467 278.875C178.107 278.315 177.647 277.855 177.087 277.495L175.407 276.415C175.127 276.175 174.767 275.875 174.327 275.515C173.887 275.155 173.387 274.755 172.827 274.315C172.347 274.115 171.687 273.655 170.847 272.935C170.087 272.415 169.327 271.355 168.567 269.755C168.007 268.595 167.587 267.595 167.307 266.755C167.027 265.915 166.887 265.075 166.887 264.235C166.887 262.355 167.427 260.795 168.507 259.555C169.227 258.675 170.007 257.755 170.847 256.795C171.727 255.835 172.667 254.815 173.667 253.735C175.187 252.455 176.807 251.615 178.527 251.215C179.607 250.935 180.687 250.795 181.767 250.795C182.207 250.795 182.427 251.195 182.427 251.995C182.427 253.195 182.107 253.795 181.467 253.795C180.627 253.795 179.727 253.915 178.767 254.155C176.647 254.715 174.627 256.095 172.707 258.295C172.427 258.615 172.027 259.075 171.507 259.675C171.027 260.235 170.447 260.915 169.767 261.715C169.207 262.755 168.927 263.435 168.927 263.755C168.927 264.115 169.027 264.655 169.227 265.375C169.427 266.095 169.707 266.835 170.067 267.595C170.667 268.835 171.307 269.795 171.987 270.475L173.787 271.555C174.187 271.875 174.587 272.215 174.987 272.575C175.427 272.935 175.887 273.315 176.367 273.715C176.967 274.115 177.567 274.535 178.167 274.975C178.767 275.375 179.347 275.935 179.907 276.655C180.587 277.575 180.927 278.815 180.927 280.375C180.927 281.895 180.567 283.295 179.847 284.575C179.327 285.455 178.367 286.515 176.967 287.755C176.087 288.555 175.187 289.255 174.267 289.855C173.387 290.415 172.487 290.895 171.567 291.295L168.567 292.195L164.667 294.175L164.367 294.235ZM197.389 293.215C196.829 293.215 196.549 292.815 196.549 292.015C196.549 291.495 196.749 291.155 197.149 290.995C198.189 290.675 199.809 290.075 202.009 289.195C202.449 288.915 202.969 288.555 203.569 288.115C204.209 287.675 204.909 287.135 205.669 286.495C206.189 286.095 206.849 285.555 207.649 284.875C208.449 284.155 209.349 283.235 210.349 282.115L212.029 280.195C212.429 279.675 212.729 278.995 212.929 278.155C213.009 277.795 213.069 277.395 213.109 276.955C213.149 276.515 213.169 276.035 213.169 275.515C213.169 274.635 213.109 273.635 212.989 272.515C212.829 270.995 212.469 269.735 211.909 268.735C211.589 268.055 210.909 267.015 209.869 265.615C209.189 264.615 207.629 263.395 205.189 261.955C204.589 261.555 203.009 260.875 200.449 259.915C198.129 258.955 196.789 258.295 196.429 257.935L194.929 256.435L195.169 256.195L194.869 256.315C194.709 256.155 194.629 255.895 194.629 255.535C194.629 254.415 195.009 253.855 195.769 253.855C195.849 253.855 195.969 253.895 196.129 253.975H196.249C196.409 254.175 196.589 254.415 196.789 254.695C196.989 254.975 197.209 255.275 197.449 255.595C197.609 255.755 198.889 256.295 201.289 257.215C202.569 257.655 203.609 258.055 204.409 258.415C205.249 258.775 205.869 259.075 206.269 259.315L208.849 260.995C209.689 261.635 210.449 262.495 211.129 263.575C212.129 264.695 212.929 265.935 213.529 267.295C214.129 268.655 214.569 270.095 214.849 271.615C215.049 272.855 215.189 273.855 215.269 274.615C215.389 275.375 215.449 275.855 215.449 276.055C215.449 276.975 215.329 277.895 215.089 278.815C214.729 280.215 214.169 281.335 213.409 282.175L211.369 284.275C210.689 284.955 209.949 285.695 209.149 286.495C208.389 287.295 207.509 288.095 206.509 288.895C205.149 290.015 203.769 290.975 202.369 291.775C201.689 292.175 200.909 292.435 200.029 292.555C198.989 292.755 198.229 292.935 197.749 293.095C197.589 293.175 197.469 293.215 197.389 293.215ZM193.129 289.135C192.889 289.135 192.629 288.875 192.349 288.355C191.789 287.315 191.509 285.895 191.509 284.095V283.915C191.509 282.915 191.609 281.735 191.809 280.375C192.049 279.015 192.369 277.475 192.769 275.755L193.909 270.655C194.269 269.455 194.689 267.815 195.169 265.735L195.829 260.755C195.949 259.755 196.309 259.255 196.909 259.255C197.509 259.255 197.769 259.775 197.689 260.815L197.269 265.795C197.269 265.835 197.149 266.335 196.909 267.295C196.709 268.255 196.389 269.655 195.949 271.495C195.709 272.215 195.389 273.275 194.989 274.675C194.589 276.035 194.229 277.515 193.909 279.115C193.589 280.675 193.429 282.115 193.429 283.435C193.429 284.995 193.749 286.215 194.389 287.095L194.209 287.155C194.289 287.595 194.209 288.035 193.969 288.475C193.729 288.915 193.449 289.135 193.129 289.135ZM223.09 292.915C221.33 292.915 219.89 292.375 218.77 291.295C217.69 290.215 217.15 288.755 217.15 286.915C217.15 286.515 217.17 286.115 217.21 285.715C217.29 285.315 217.37 284.915 217.45 284.515C217.89 282.795 219.11 280.955 221.11 278.995C223.35 276.875 225.29 275.815 226.93 275.815C228.29 275.815 228.93 276.575 228.85 278.095C228.81 280.055 227.73 281.975 225.61 283.855C224.69 284.615 223.73 285.315 222.73 285.955C221.77 286.595 220.75 286.915 219.67 286.915H219.61C219.73 289.515 221.07 290.815 223.63 290.815C224.47 290.815 225.41 290.615 226.45 290.215C226.53 290.175 226.65 290.155 226.81 290.155C227.33 290.155 227.59 290.415 227.59 290.935C227.59 291.295 227.41 291.575 227.05 291.775C225.93 292.535 224.61 292.915 223.09 292.915ZM221.23 284.095C222.47 283.815 223.53 283.295 224.41 282.535C225.97 281.215 226.75 279.955 226.75 278.755V278.635C226.75 278.355 226.65 278.135 226.45 277.975C226.25 277.815 226.11 277.775 226.03 277.855C224.79 277.855 223.47 278.755 222.07 280.555C221.87 280.835 221.63 281.215 221.35 281.695C221.07 282.135 220.77 282.675 220.45 283.315C220.41 283.395 220.39 283.475 220.39 283.555C220.39 283.915 220.67 284.095 221.23 284.095ZM232.591 292.795C231.831 292.795 231.451 292.495 231.451 291.895V285.115C231.331 282.435 230.991 280.315 230.431 278.755C230.391 278.675 230.371 278.535 230.371 278.335C230.371 277.695 230.631 277.375 231.151 277.375C231.391 277.375 231.591 277.515 231.751 277.795C232.711 279.435 233.391 282.235 233.791 286.195C233.911 286.395 234.051 286.495 234.211 286.495C234.731 286.495 236.011 285.115 238.051 282.355L241.771 277.135C242.091 276.695 242.531 276.435 243.091 276.355C243.251 276.275 243.371 276.235 243.451 276.235C243.811 276.235 243.991 276.435 243.991 276.835C243.991 276.915 243.971 277.015 243.931 277.135C243.931 277.255 243.911 277.395 243.871 277.555L243.511 278.935C243.271 279.455 242.731 279.775 241.891 279.895C241.411 280.375 240.831 281.135 240.151 282.175L238.591 284.695C238.031 285.495 237.371 286.515 236.611 287.755C235.851 288.995 234.971 290.435 233.971 292.075C233.731 292.555 233.271 292.795 232.591 292.795ZM248.31 292.915C246.55 292.915 245.11 292.375 243.99 291.295C242.91 290.215 242.37 288.755 242.37 286.915C242.37 286.515 242.39 286.115 242.43 285.715C242.51 285.315 242.59 284.915 242.67 284.515C243.11 282.795 244.33 280.955 246.33 278.995C248.57 276.875 250.51 275.815 252.15 275.815C253.51 275.815 254.15 276.575 254.07 278.095C254.03 280.055 252.95 281.975 250.83 283.855C249.91 284.615 248.95 285.315 247.95 285.955C246.99 286.595 245.97 286.915 244.89 286.915H244.83C244.95 289.515 246.29 290.815 248.85 290.815C249.69 290.815 250.63 290.615 251.67 290.215C251.75 290.175 251.87 290.155 252.03 290.155C252.55 290.155 252.81 290.415 252.81 290.935C252.81 291.295 252.63 291.575 252.27 291.775C251.15 292.535 249.83 292.915 248.31 292.915ZM246.45 284.095C247.69 283.815 248.75 283.295 249.63 282.535C251.19 281.215 251.97 279.955 251.97 278.755V278.635C251.97 278.355 251.87 278.135 251.67 277.975C251.47 277.815 251.33 277.775 251.25 277.855C250.01 277.855 248.69 278.755 247.29 280.555C247.09 280.835 246.85 281.215 246.57 281.695C246.29 282.135 245.99 282.675 245.67 283.315C245.63 283.395 245.61 283.475 245.61 283.555C245.61 283.915 245.89 284.095 246.45 284.095ZM259.372 295.735C258.012 295.775 256.932 294.795 256.132 292.795C255.372 290.795 254.992 287.795 254.992 283.795C254.992 281.515 255.172 278.975 255.532 276.175C255.932 273.335 256.512 270.215 257.272 266.815C259.232 257.775 261.592 253.255 264.352 253.255C265.432 253.255 266.212 254.235 266.692 256.195C267.052 257.675 267.172 259.015 267.052 260.215C266.652 264.095 264.352 269.415 260.152 276.175C259.872 276.495 259.532 276.915 259.132 277.435C258.772 277.955 258.332 278.575 257.812 279.295C257.732 280.215 257.652 281.115 257.572 281.995C257.532 282.875 257.512 283.715 257.512 284.515C257.512 285.955 257.632 287.435 257.872 288.955C258.312 291.315 258.972 292.495 259.852 292.495C260.692 292.495 261.532 291.955 262.372 290.875L264.112 288.055C264.312 287.735 264.572 287.575 264.892 287.575C265.292 287.575 265.492 287.775 265.492 288.175C265.492 288.255 265.472 288.335 265.432 288.415C265.432 288.495 265.412 288.575 265.372 288.655C264.932 289.655 264.532 290.515 264.172 291.235C263.852 291.915 263.552 292.455 263.272 292.855C262.032 294.775 260.732 295.735 259.372 295.735ZM264.292 256.255C261.532 257.455 259.472 264.055 258.112 276.055C258.232 275.935 258.412 275.695 258.652 275.335C263.092 269.015 265.312 263.975 265.312 260.215C265.312 259.935 265.292 259.635 265.252 259.315C265.212 258.955 265.152 258.555 265.072 258.115C264.832 257.035 264.572 256.415 264.292 256.255ZM269.498 292.555C268.218 292.555 267.138 292.055 266.258 291.055C265.458 290.135 265.058 289.095 265.058 287.935C265.058 285.775 266.038 283.475 267.998 281.035C268.798 279.995 269.658 279.075 270.578 278.275C271.498 277.475 272.458 276.755 273.458 276.115C273.658 275.995 273.938 275.935 274.298 275.935C275.458 275.935 276.038 276.215 276.038 276.775C276.038 276.935 275.918 277.115 275.678 277.315V277.375C276.278 278.215 276.878 279.095 277.478 280.015C278.078 280.935 278.378 282.015 278.378 283.255C278.378 284.295 278.098 285.355 277.538 286.435C277.018 287.515 276.298 288.535 275.378 289.495C274.498 290.415 273.538 291.155 272.498 291.715C271.458 292.275 270.458 292.555 269.498 292.555ZM269.558 290.695C270.558 290.655 271.618 290.255 272.738 289.495C273.858 288.695 274.818 287.735 275.618 286.615C276.458 285.495 276.898 284.435 276.938 283.435C277.018 281.875 276.218 280.115 274.538 278.155C272.818 279.395 271.298 280.855 269.978 282.535C268.418 284.575 267.638 286.415 267.638 288.055C267.638 289.815 268.278 290.695 269.558 290.695ZM277.404 315.115C276.724 315.115 276.384 314.895 276.384 314.455C276.384 314.255 276.364 313.935 276.324 313.495C276.284 313.055 276.224 312.515 276.144 311.875C276.104 311.315 276.064 310.795 276.024 310.315C275.984 309.875 275.984 309.515 276.024 309.235C276.184 306.515 276.624 303.255 277.344 299.455C278.064 295.695 279.104 291.395 280.464 286.555C280.184 286.515 280.044 286.335 280.044 286.015C279.844 285.815 279.744 285.515 279.744 285.115C279.744 284.555 279.904 284.035 280.224 283.555C280.584 283.035 280.944 282.535 281.304 282.055L281.964 280.915L282.624 278.755C282.904 277.955 283.104 277.215 283.224 276.535C283.344 275.815 283.424 275.175 283.464 274.615C283.504 274.095 283.784 273.835 284.304 273.835C284.904 273.835 285.204 274.075 285.204 274.555C285.204 275.155 285.144 275.755 285.024 276.355C284.904 276.955 284.744 277.575 284.544 278.215C287.184 276.055 289.804 274.975 292.404 274.975C293.604 274.975 294.524 275.475 295.164 276.475C295.724 277.275 296.004 278.155 296.004 279.115C296.004 281.795 294.684 285.035 292.044 288.835C289.244 292.915 286.544 294.955 283.944 294.955C282.784 294.955 282.204 294.275 282.204 292.915C282.204 292.155 282.464 291.775 282.984 291.775C283.224 291.775 283.564 291.935 284.004 292.255C284.204 292.295 284.404 292.315 284.604 292.315C284.804 292.355 285.004 292.415 285.204 292.495C287.124 292.495 289.144 290.835 291.264 287.515C293.264 284.315 294.264 281.515 294.264 279.115C294.264 278.555 294.024 278.015 293.544 277.495C293.104 276.935 292.624 276.655 292.104 276.655C288.664 276.615 285.884 278.035 283.764 280.915L282.984 283.375C280.464 291.815 279.204 299.955 279.204 307.795L279.144 311.035L279.084 314.095C279.084 314.775 278.524 315.115 277.404 315.115ZM302.97 292.915C301.21 292.915 299.77 292.375 298.65 291.295C297.57 290.215 297.03 288.755 297.03 286.915C297.03 286.515 297.05 286.115 297.09 285.715C297.17 285.315 297.25 284.915 297.33 284.515C297.77 282.795 298.99 280.955 300.99 278.995C303.23 276.875 305.17 275.815 306.81 275.815C308.17 275.815 308.81 276.575 308.73 278.095C308.69 280.055 307.61 281.975 305.49 283.855C304.57 284.615 303.61 285.315 302.61 285.955C301.65 286.595 300.63 286.915 299.55 286.915H299.49C299.61 289.515 300.95 290.815 303.51 290.815C304.35 290.815 305.29 290.615 306.33 290.215C306.41 290.175 306.53 290.155 306.69 290.155C307.21 290.155 307.47 290.415 307.47 290.935C307.47 291.295 307.29 291.575 306.93 291.775C305.81 292.535 304.49 292.915 302.97 292.915ZM301.11 284.095C302.35 283.815 303.41 283.295 304.29 282.535C305.85 281.215 306.63 279.955 306.63 278.755V278.635C306.63 278.355 306.53 278.135 306.33 277.975C306.13 277.815 305.99 277.775 305.91 277.855C304.67 277.855 303.35 278.755 301.95 280.555C301.75 280.835 301.51 281.215 301.23 281.695C300.95 282.135 300.65 282.675 300.33 283.315C300.29 283.395 300.27 283.475 300.27 283.555C300.27 283.915 300.55 284.095 301.11 284.095ZM312.231 291.235C311.831 291.235 311.571 290.775 311.451 289.855C311.331 288.895 311.271 287.915 311.271 286.915C311.271 286.275 311.271 285.695 311.271 285.175C311.311 284.615 311.331 284.195 311.331 283.915C311.331 283.515 311.351 283.015 311.391 282.415C311.431 281.775 311.491 281.055 311.571 280.255C311.691 278.615 311.751 277.375 311.751 276.535C311.751 276.135 311.731 275.755 311.691 275.395C311.651 274.995 311.631 274.635 311.631 274.315V274.075C311.631 273.595 311.891 273.355 312.411 273.355C312.811 273.355 313.031 273.595 313.071 274.075C313.151 274.515 313.211 275.415 313.251 276.775C313.291 278.135 313.331 279.935 313.371 282.175C313.371 282.775 313.491 283.075 313.731 283.075C314.011 283.075 314.431 282.615 314.991 281.695C316.151 279.775 317.411 278.155 318.771 276.835C319.771 275.915 320.691 275.455 321.531 275.455C322.531 275.455 323.391 275.895 324.111 276.775C324.351 277.055 324.471 277.355 324.471 277.675C324.471 278.195 324.251 278.455 323.811 278.455C323.651 278.455 323.471 278.395 323.271 278.275L323.211 278.335C322.451 277.775 321.951 277.495 321.711 277.495C320.751 277.495 319.851 278.015 319.011 279.055C316.091 282.655 314.291 286.295 313.611 289.975C313.451 290.815 312.991 291.235 312.231 291.235Z" fill="#F3BA00"/>
</svg>
